<svg width="523" height="152" viewBox="0 0 523 152" fill="none" xmlns="http://www.w3.org/2000/svg">
<path d="M47.0845 118.436C46.9677 118.436 46.8499 118.395 46.7562 118.311C46.5532 118.129 46.5354 117.818 46.7168 117.614C46.7306 117.599 48.1419 116.019 50.8674 113.298C51.0606 113.105 51.3721 113.106 51.5644 113.299C51.7566 113.492 51.7561 113.804 51.5634 113.997C48.8611 116.695 47.4661 118.256 47.4523 118.272C47.3552 118.381 47.2196 118.436 47.0845 118.436ZM55.4753 110.006C55.3442 110.006 55.2141 109.954 55.1165 109.852C54.9297 109.653 54.939 109.341 55.1367 109.154C56.5273 107.839 57.9962 106.482 59.5012 105.122C59.7028 104.939 60.0148 104.955 60.1972 105.157C60.3796 105.359 60.3638 105.671 60.1617 105.854C58.6617 107.21 57.1987 108.561 55.8135 109.871C55.7184 109.962 55.5971 110.006 55.4753 110.006ZM64.2718 102.053C64.1343 102.053 63.9968 101.995 63.8992 101.882C63.7212 101.676 63.7434 101.364 63.949 101.186C65.4243 99.9059 66.945 98.6117 68.4692 97.3388C68.6797 97.1641 68.9898 97.1927 69.1633 97.4015C69.3378 97.6108 69.3097 97.9222 69.1007 98.0969C67.5814 99.3659 66.0656 100.656 64.5947 101.932C64.5015 102.013 64.3862 102.053 64.2718 102.053ZM73.3666 94.4533C73.2221 94.4533 73.0797 94.3906 72.9821 94.2692C72.8115 94.057 72.845 93.746 73.057 93.5752C74.5816 92.3467 76.1467 91.1078 77.7084 89.8931C77.9233 89.7253 78.2333 89.7653 78.4 89.98C78.5671 90.1952 78.5281 90.5052 78.3127 90.6725C76.756 91.8842 75.1954 93.1197 73.6751 94.3447C73.5839 94.4178 73.475 94.4533 73.3666 94.4533ZM82.7156 87.1774C82.5658 87.1774 82.4179 87.1093 82.3208 86.9805C82.1576 86.7628 82.2015 86.4533 82.4189 86.2895C83.9874 85.1098 85.5914 83.9237 87.1866 82.7633C87.4074 82.6024 87.715 82.6523 87.8752 82.8724C88.0349 83.093 87.9861 83.4015 87.7658 83.5619C86.1741 84.7189 84.5745 85.9025 83.0109 87.0787C82.9222 87.1453 82.8182 87.1779 82.7151 87.1779L82.7156 87.1774ZM92.2929 80.2105C92.1381 80.2105 91.9848 80.1375 91.8892 80.0007C91.733 79.7776 91.7867 79.4701 92.009 79.3132C93.6224 78.1779 95.2629 77.0427 96.8842 75.9391C97.1094 75.7861 97.4165 75.8453 97.5694 76.0699C97.7227 76.2954 97.6635 76.6024 97.4387 76.7559C95.8214 77.8566 94.1853 78.9894 92.5764 80.1217C92.4901 80.1824 92.391 80.2115 92.2934 80.2115L92.2929 80.2105ZM102.081 73.5462C101.921 73.5462 101.763 73.4682 101.669 73.3241C101.519 73.0965 101.582 72.79 101.809 72.6405C103.455 71.5565 105.128 70.4717 106.783 69.4164C107.013 69.2698 107.318 69.3374 107.464 69.5679C107.611 69.7979 107.542 70.103 107.313 70.2495C105.661 71.3019 103.992 72.3838 102.351 73.4652C102.268 73.52 102.174 73.5462 102.081 73.5462ZM112.064 67.1809C111.899 67.1809 111.737 67.0975 111.644 66.946C111.501 66.714 111.573 66.41 111.805 66.2668C113.487 65.2288 115.192 64.1948 116.872 63.1928C117.105 63.0531 117.408 63.1301 117.548 63.3641C117.687 63.5985 117.61 63.9011 117.376 64.0408C115.701 65.0403 113.999 66.0719 112.322 67.1074C112.241 67.1573 112.151 67.1805 112.064 67.1805L112.064 67.1809ZM122.23 61.1148C122.059 61.1148 121.893 61.026 121.802 60.868C121.666 60.6316 121.747 60.33 121.983 60.1938C123.678 59.216 125.412 58.2318 127.137 57.2693C127.373 57.1361 127.675 57.2224 127.807 57.4603C127.94 57.6983 127.855 57.9993 127.616 58.1316C125.895 59.0921 124.165 60.0734 122.475 61.0487C122.397 61.0936 122.313 61.1148 122.23 61.1148ZM132.568 55.3488C132.393 55.3488 132.222 55.255 132.133 55.0892C132.004 54.8493 132.094 54.5497 132.334 54.4209C134.059 53.4915 135.82 52.5581 137.57 51.6474C137.811 51.5216 138.109 51.6163 138.235 51.8577C138.36 52.0996 138.266 52.3977 138.024 52.5235C136.279 53.4322 134.522 54.3631 132.801 55.2901C132.727 55.3305 132.647 55.3493 132.568 55.3493L132.568 55.3488ZM143.067 49.8844C142.887 49.8844 142.712 49.7847 142.626 49.6119C142.504 49.3681 142.602 49.0719 142.845 48.9495C144.594 48.0709 146.382 47.1894 148.158 46.3281C148.406 46.2096 148.698 46.3123 148.817 46.5576C148.935 46.8029 148.833 47.0981 148.588 47.2166C146.815 48.0754 145.032 48.9549 143.287 49.8315C143.216 49.8671 143.141 49.8839 143.067 49.8839L143.067 49.8844ZM153.718 44.7245C153.532 44.7245 153.355 44.6193 153.271 44.4397C153.156 44.1929 153.263 43.8987 153.509 43.7837C155.288 42.9525 157.1 42.1223 158.895 41.3153C159.143 41.2023 159.435 41.3153 159.547 41.5631C159.658 41.8118 159.547 42.104 159.299 42.2156C157.508 43.0206 155.701 43.8493 153.926 44.6781C153.858 44.7096 153.788 44.7245 153.718 44.7245ZM164.511 39.8711C164.32 39.8711 164.139 39.7595 164.058 39.5729C163.95 39.3227 164.066 39.032 164.315 38.9239C166.118 38.1435 167.954 37.3652 169.769 36.61C170.021 36.5063 170.308 36.6248 170.413 36.877C170.518 37.1287 170.399 37.4175 170.147 37.5221C168.336 38.2748 166.505 39.0517 164.706 39.8301C164.643 39.8577 164.576 39.8711 164.511 39.8711H164.511ZM175.436 35.3272C175.241 35.3272 175.056 35.2092 174.978 35.0162C174.877 34.763 175.001 34.4757 175.254 34.375C177.083 33.6445 178.939 32.9185 180.77 32.2166C181.026 32.1194 181.31 32.2467 181.407 32.5014C181.504 32.7561 181.377 33.0414 181.123 33.1391C179.296 33.839 177.444 34.5631 175.619 35.2921C175.559 35.3158 175.498 35.3272 175.436 35.3272ZM186.486 31.0942C186.285 31.0942 186.096 30.9703 186.024 30.7704C185.93 30.5142 186.061 30.2309 186.317 30.1371C188.154 29.4629 190.029 28.7897 191.892 28.1357C192.149 28.0468 192.431 28.1811 192.52 28.4382C192.61 28.6954 192.475 28.9772 192.218 29.0675C190.36 29.7196 188.489 30.3918 186.656 31.0641C186.6 31.0848 186.543 31.0942 186.487 31.0942H186.486ZM197.65 27.1756C197.444 27.1756 197.251 27.0448 197.183 26.8385C197.096 26.5804 197.236 26.3005 197.494 26.2137C199.35 25.5912 201.244 24.9708 203.122 24.3701C203.383 24.2867 203.659 24.4303 203.742 24.69C203.825 24.9496 203.682 25.2275 203.423 25.3104C201.548 25.9096 199.659 26.5286 197.807 27.1495C197.755 27.1668 197.702 27.1752 197.651 27.1752L197.65 27.1756ZM208.919 23.5725C208.708 23.5725 208.513 23.4353 208.448 23.2226C208.369 22.9614 208.516 22.686 208.776 22.6066C210.654 22.035 212.565 21.4684 214.454 20.922C214.715 20.8474 214.988 20.9975 215.064 21.2596C215.14 21.5217 214.989 21.7951 214.727 21.8706C212.843 22.4155 210.937 22.9812 209.063 23.5513C209.015 23.5656 208.967 23.5725 208.919 23.5725ZM471.672 22.8899C471.63 22.8899 471.588 22.8844 471.546 22.8736C469.632 22.3706 467.724 21.8785 465.823 21.3988C465.558 21.3321 465.399 21.0636 465.465 20.7996C465.531 20.535 465.799 20.3746 466.063 20.4417C467.968 20.923 469.879 21.4151 471.797 21.919C472.06 21.9881 472.217 22.2581 472.148 22.5217C472.09 22.7433 471.891 22.8899 471.672 22.8899ZM220.284 20.2867C220.068 20.2867 219.869 20.1426 219.809 19.9235C219.737 19.6604 219.892 19.3889 220.154 19.3168C222.043 18.7991 223.969 18.2857 225.876 17.7912C226.141 17.7245 226.409 17.8815 226.477 18.1456C226.546 18.4096 226.387 18.6786 226.124 18.7472C224.22 19.2408 222.299 19.7527 220.414 20.269C220.371 20.2808 220.327 20.2867 220.283 20.2867H220.284ZM460.2 19.9945C460.161 19.9945 460.122 19.9901 460.083 19.9807C458.16 19.5153 456.243 19.0617 454.332 18.6199C454.067 18.5582 453.901 18.2931 453.962 18.0276C454.024 17.7621 454.288 17.5982 454.554 17.6574C456.468 18.1002 458.388 18.5543 460.315 19.0207C460.579 19.0849 460.742 19.3514 460.678 19.6164C460.624 19.8425 460.421 19.994 460.199 19.994L460.2 19.9945ZM448.673 17.3297C448.638 17.3297 448.602 17.3257 448.567 17.3178C446.634 16.8919 444.708 16.4773 442.788 16.075C442.522 16.0192 442.351 15.7571 442.407 15.4906C442.463 15.2236 442.725 15.0553 442.991 15.1086C444.913 15.5118 446.843 15.9264 448.779 16.3534C449.045 16.4121 449.213 16.6752 449.154 16.9412C449.104 17.1717 448.9 17.3297 448.673 17.3297ZM231.735 17.3188C231.514 17.3188 231.312 17.1678 231.257 16.9422C231.192 16.6772 231.354 16.4101 231.619 16.346C233.53 15.8785 235.468 15.419 237.381 14.9797C237.644 14.9175 237.91 15.0849 237.971 15.3504C238.032 15.616 237.866 15.881 237.601 15.9417C235.693 16.38 233.759 16.8386 231.852 17.305C231.813 17.3144 231.774 17.3188 231.735 17.3188ZM437.095 14.9022C437.063 14.9022 437.031 14.8993 436.999 14.8929C435.057 14.5069 433.123 14.1332 431.196 13.7714C430.928 13.7211 430.752 13.463 430.802 13.1954C430.853 12.9279 431.11 12.7502 431.378 12.8011C433.308 13.1634 435.246 13.538 437.19 13.9245C437.457 13.9778 437.631 14.2374 437.578 14.5049C437.531 14.7399 437.325 14.9022 437.095 14.9022H437.095ZM243.265 14.6698C243.038 14.6698 242.833 14.5113 242.784 14.2798C242.726 14.0133 242.896 13.7507 243.162 13.6935C245.092 13.2779 247.043 12.8721 248.96 12.4871C249.225 12.4348 249.486 12.6066 249.54 12.8741C249.593 13.1416 249.421 13.4013 249.153 13.4551C247.241 13.8391 245.296 14.2443 243.37 14.6584C243.335 14.6658 243.3 14.6693 243.266 14.6693L243.265 14.6698ZM425.467 12.7191C425.439 12.7191 425.41 12.7167 425.381 12.7117C423.432 12.3672 421.49 12.035 419.556 11.7147C419.287 11.6703 419.105 11.4161 419.15 11.1471C419.195 10.8786 419.441 10.6945 419.717 10.7409C421.655 11.0617 423.6 11.3944 425.552 11.7394C425.821 11.7868 426 12.0429 425.952 12.3114C425.91 12.5508 425.702 12.7191 425.467 12.7191ZM254.863 12.3386C254.629 12.3386 254.422 12.1732 254.379 11.9353C254.329 11.6678 254.505 11.4097 254.773 11.3598C256.711 10.998 258.671 10.6456 260.601 10.3124C260.868 10.2655 261.124 10.4462 261.17 10.7147C261.217 10.9832 261.037 11.2389 260.769 11.2848C258.844 11.617 256.887 11.9689 254.954 12.3297C254.923 12.3356 254.893 12.3386 254.863 12.3386ZM413.795 10.7868C413.77 10.7868 413.745 10.7848 413.719 10.7808C411.785 10.4822 409.818 10.19 407.874 9.91213C407.605 9.87363 407.417 9.62388 407.456 9.35389C407.495 9.08439 407.746 8.89683 408.014 8.93484C409.961 9.21273 411.931 9.50591 413.87 9.80502C414.139 9.84648 414.323 10.0987 414.282 10.3682C414.244 10.612 414.034 10.7868 413.795 10.7868ZM266.519 10.3253C266.281 10.3253 266.072 10.152 266.033 9.90917C265.99 9.63967 266.174 9.38696 266.443 9.34402C268.38 9.03652 270.35 8.73741 272.297 8.45557C272.57 8.41757 272.816 8.60414 272.855 8.87363C272.894 9.14313 272.707 9.39387 272.438 9.43286C270.496 9.7142 268.53 10.0123 266.597 10.3193C266.57 10.3233 266.545 10.3253 266.519 10.3253ZM402.085 9.11253C402.064 9.11253 402.042 9.11105 402.021 9.10858C400.06 8.85093 398.087 8.60315 396.157 8.37117C395.886 8.33859 395.694 8.09279 395.726 7.82231C395.758 7.55232 395.994 7.36278 396.274 7.39091C398.208 7.6229 400.185 7.87166 402.148 8.12981C402.418 8.16535 402.609 8.41312 402.573 8.68361C402.541 8.93188 402.329 9.11302 402.085 9.11302L402.085 9.11253ZM278.226 8.62832C277.982 8.62832 277.77 8.44767 277.738 8.19891C277.702 7.92892 277.892 7.68065 278.162 7.64511C280.1 7.39092 282.077 7.14511 284.038 6.91412C284.31 6.87858 284.553 7.07601 284.585 7.34649C284.616 7.61698 284.423 7.86229 284.153 7.89437C282.196 8.12487 280.224 8.37018 278.29 8.62388C278.268 8.62684 278.247 8.62783 278.225 8.62783L278.226 8.62832ZM390.339 7.70385C390.321 7.70385 390.303 7.70286 390.286 7.70088C388.342 7.49012 386.364 7.28726 384.407 7.09822C384.136 7.07206 383.937 6.8307 383.964 6.55923C383.99 6.28776 384.225 6.09131 384.502 6.1155C386.463 6.30553 388.445 6.50839 390.392 6.71964C390.662 6.74926 390.858 6.99259 390.829 7.26357C390.801 7.51678 390.588 7.70434 390.339 7.70434L390.339 7.70385ZM289.974 7.2463C289.725 7.2463 289.511 7.05775 289.484 6.80405C289.456 6.53307 289.653 6.29023 289.924 6.26209C291.868 6.05973 293.851 5.86624 295.816 5.68707C296.09 5.66782 296.328 5.86229 296.352 6.13426C296.377 6.40573 296.177 6.64561 295.906 6.67029C293.944 6.84847 291.966 7.04146 290.026 7.24383C290.009 7.2458 289.991 7.2463 289.975 7.2463H289.974ZM378.564 6.56565C378.55 6.56565 378.536 6.56565 378.522 6.56417C376.572 6.39882 374.589 6.24235 372.631 6.09921C372.359 6.07947 372.155 5.84304 372.175 5.57108C372.194 5.29912 372.437 5.10119 372.702 5.11452C374.664 5.25815 376.651 5.41461 378.605 5.58046C378.877 5.60366 379.078 5.84255 379.055 6.11402C379.033 6.37118 378.818 6.56614 378.564 6.56614V6.56565ZM301.754 6.17621C301.499 6.17621 301.284 5.97976 301.263 5.72063C301.242 5.44867 301.445 5.21175 301.717 5.19053C303.672 5.0385 305.659 4.89783 307.622 4.77098C307.899 4.75223 308.129 4.95953 308.146 5.23199C308.163 5.50445 307.957 5.7389 307.685 5.75617C305.725 5.88253 303.743 6.0232 301.792 6.17473C301.78 6.17572 301.767 6.17621 301.754 6.17621ZM366.766 5.70484C366.755 5.70484 366.745 5.70484 366.735 5.70385C364.789 5.5849 362.804 5.47582 360.835 5.37957C360.562 5.36624 360.353 5.13475 360.366 4.8623C360.379 4.58984 360.611 4.38155 360.883 4.39339C362.857 4.49013 364.846 4.59922 366.795 4.71866C367.067 4.73545 367.273 4.9694 367.257 5.24137C367.241 5.50296 367.024 5.70484 366.766 5.70484ZM313.558 5.41511C313.298 5.41511 313.08 5.21027 313.066 4.9467C313.053 4.67424 313.262 4.44275 313.533 4.42844C315.493 4.32775 317.483 4.23791 319.448 4.1619C319.7 4.15647 319.95 4.36378 319.96 4.63623C319.97 4.90869 319.758 5.13821 319.486 5.14857C317.524 5.22409 315.538 5.31343 313.584 5.41412C313.575 5.41412 313.567 5.41461 313.558 5.41461L313.558 5.41511ZM354.95 5.12735C354.943 5.12735 354.938 5.12735 354.932 5.12735C352.963 5.05529 350.976 4.99408 349.025 4.9467C348.753 4.94028 348.538 4.71373 348.544 4.44127C348.551 4.16832 348.769 3.94473 349.049 3.96003C351.003 4.00791 352.994 4.06862 354.967 4.14068C355.24 4.15104 355.452 4.37957 355.442 4.65203C355.432 4.91856 355.214 5.12735 354.95 5.12735ZM325.379 4.95904C325.113 4.95904 324.894 4.7463 324.887 4.47829C324.88 4.20583 325.095 3.97928 325.367 3.97237C327.328 3.92153 329.32 3.88303 331.288 3.85736H331.294C331.564 3.85736 331.784 4.07405 331.787 4.34453C331.791 4.61699 331.573 4.84107 331.301 4.84453C329.338 4.87019 327.349 4.90869 325.393 4.95904C325.388 4.95904 325.384 4.95904 325.38 4.95904H325.379ZM343.123 4.8386H343.117C341.226 4.8159 339.311 4.80455 337.425 4.80455H337.208C336.935 4.80455 336.715 4.58342 336.715 4.31096C336.715 4.03851 336.935 3.81738 337.208 3.81738H337.425C339.315 3.81738 341.235 3.82874 343.129 3.85144C343.401 3.85489 343.619 4.07849 343.616 4.35094C343.612 4.62143 343.392 4.8386 343.123 4.8386H343.123Z" fill="#F4F1E6"/>
<path fill-rule="evenodd" clip-rule="evenodd" d="M21 100.806C12.7156 100.806 6 107.886 6 116.619C6 125.352 21 147.782 21 147.782C21 147.782 36 125.353 36 116.619C36 107.886 29.284 100.806 21 100.806ZM21 125.052C16.0294 125.052 11.9997 120.981 11.9997 115.959C11.9997 110.938 16.0294 106.867 21 106.867C25.9706 106.867 29.9995 110.938 29.9995 115.959C29.9995 120.981 25.9703 125.052 21 125.052Z" fill="#3C443B"/>
<path fill-rule="evenodd" clip-rule="evenodd" d="M499.559 5C491.274 5 484.559 12.0799 484.559 20.8131C484.559 29.5462 499.559 51.9758 499.559 51.9758C499.559 51.9758 514.559 29.5466 514.559 20.8131C514.559 12.0795 507.843 5 499.559 5ZM499.559 29.2454C494.588 29.2454 490.558 25.1747 490.558 20.1532C490.558 15.1318 494.588 11.0611 499.559 11.0611C504.529 11.0611 508.558 15.1318 508.558 20.1532C508.558 25.1747 504.529 29.2454 499.559 29.2454Z" fill="#3C443B"/>
</svg>
