<svg fill="none" height="45" viewBox="0 0 45 45" width="45" xmlns="http://www.w3.org/2000/svg"><g fill="#e1621b"><path d="m18.722 33.5414 8.7184-8.9254-1.1882-1.3045 10.2796-10.3088-4.6442-4.64416-3.9277 3.92756-1.3691-1.3306-8.7184 8.9254 1.1883 1.3045-10.68716 10.7176 4.64366 4.6436 4.3357-4.3357z"/><path d="m14.1027 16.1112 8.7184-8.92533 1.3691 1.33054 3.9277-3.92772-3.9049-3.904937c-.9118-.911762-2.3902-.911762-3.3021 0l-20.227078 20.227247c-.911763.9117-.911763 2.3901 0 3.3021l3.920018 3.92 10.68716-10.7175z"/><path d="m43.9986 20.4693-3.7826-3.7825-10.2797 10.3088 1.1883 1.3045-8.7184 8.9252-1.3691-1.3305-4.3357 4.3357 3.768 3.768c.9118.9119 2.3902.9119 3.3022 0l20.227-20.227c.9119-.9118.9119-2.3902 0-3.3022z"/></g></svg>