<svg fill="none" height="45" viewBox="0 0 180 45" width="180" xmlns="http://www.w3.org/2000/svg"><g fill="#f4f1e6"><path d="m148.053 24.7302h-2.579v14.2238h2.579z"/><path d="m153.355 24.8989c-.351.1124-.66.2627-.927.4514-.268.1885-.498.405-.69.6496-.192.2448-.347.501-.466.7686-.119.2679-.207.5391-.263.8135-.056.2745-.084.5306-.084.7686v6.9828c0 .4431.056.8417.168 1.1953.113.3539.263.6647.452.9324.188.2676.405.496.65.6843.244.1885.5.3422.768.4612s.539.2068.813.2628c.275.0562.531.0843.769.0843h9.304v-2.579h-9.304c-.331 0-.587-.0906-.769-.2728-.182-.1818-.272-.438-.272-.7687v-6.963c0-.3504.089-.615.267-.7936.179-.1785.437-.2676.774-.2676h9.304v-2.579h-9.304c-.443 0-.84.0562-1.19.1686z"/><path d="m179.811 33.3994c-.125-.4033-.296-.7604-.511-1.0713-.214-.3106-.461-.5767-.738-.7985-.278-.2214-.571-.4049-.878-.5504-.308-.1454-.617-.253-.928-.3224-.31-.0694-.605-.1075-.882-.1142h-5.952c-.489 0-.871-.1437-1.145-.4314-.275-.2877-.412-.6794-.412-1.1753 0-.4892.137-.8828.412-1.1805.274-.2974.656-.4462 1.145-.4462h8.779v-2.579h-8.779c-.416 0-.866.0746-1.348.2233-.483.1487-.931.3902-1.345.7241-.413.334-.757.7672-1.031 1.2994-.275.5322-.412 1.1852-.412 1.9591 0 .7738.137 1.4282.412 1.9638.274.5357.618.9688 1.031 1.2994.414.3309.862.5704 1.345.7191.482.1488.932.2233 1.348.2233h5.932c.238 0 .454.0396.65.1189.195.0794.36.1918.496.3372.135.1457.239.3176.312.516.073.1982.109.4165.109.6546 0 .4893-.137.8795-.411 1.1703-.275.2911-.66.4364-1.156.4364h-9.949v2.579h9.949c.278 0 .574-.0329.888-.0992.314-.066.623-.1684.927-.3074s.599-.3175.883-.5356c.284-.2182.532-.4826.744-.7936.211-.3106.382-.6694.511-1.0762.129-.4066.193-.8645.193-1.3737 0-.5093-.063-.9654-.188-1.3688z"/><path d="m64.0799 16.9062h8.3804v3.4915h3.2643v-13.26711c0-.22293-.0422-.43746-.1255-.6376-.0831-.19945-.2013-.37663-.3517-.52725-.1505-.15028-.3278-.26868-.5273-.35178-.2001-.08328-.4145-.12543-.6376-.12543h-5.8124c-1.0644 0-2.0621.18523-2.9654.55072-.9046.36601-1.7.88486-2.3643 1.54217-.6649.65816-1.1909 1.45391-1.5638 2.36533-.3725.91005-.5612 1.91825-.5612 2.99645v7.4545h3.2645zm2.898-7.9574c.3122-.08653.589-.14119.8222-.16261.3034-.02759.4232-.03324.47-.03324h4.1902v4.88905h-8.3804v-.6986c0-.6741.0935-1.2504.2781-1.7132.1852-.4646.4215-.8544.7025-1.1594.282-.30619.5941-.54883.927-.72138.3477-.17992.681-.31477.9904-.40062z"/><path d="m81.0598 16.9062h8.3805v3.4915h3.2643v-13.26711c0-.22293-.0422-.43746-.1255-.6376-.0831-.19945-.2013-.37663-.3518-.52725-.1504-.15028-.3278-.26868-.5272-.35178-.2001-.08328-.4145-.12543-.6376-.12543h-5.8124c-1.0645 0-2.0621.18523-2.9654.55072-.9046.36601-1.7.88486-2.3644 1.54217-.6648.65816-1.1908 1.45391-1.5637 2.36533-.3725.91005-.5612 1.91825-.5612 2.99645v7.4545h3.2644zm2.8981-7.9574c.3122-.08653.5889-.14119.8222-.16261.3034-.02759.4232-.03324.47-.03324h4.1902v4.88905h-8.3805v-.6986c0-.6741.0936-1.2504.2781-1.7132.1853-.4646.4216-.8544.7026-1.1594.282-.30619.5941-.54883.927-.72138.3477-.17992.6809-.31477.9904-.40062z"/><path d="m109.174 14.3983c-.135-.4344-.322-.8261-.556-1.1643-.232-.3366-.504-.6298-.807-.8715-.297-.237-.615-.4363-.945-.5926-.33-.1556-.666-.2722-.999-.3468-.331-.074-.651-.115-.958-.1223h-5.951c-.3955 0-.689-.1064-.8976-.3252-.2133-.2235-.317-.5307-.317-.9389 0-.40369.1049-.71401.321-.94808.2083-.22601.5007-.33584.8936-.33584h9.121v-3.26425h-9.121c-.449 0-.9368.08019-1.4498.23835-.5225.16107-1.0132.42512-1.4586.78513-.4486.36241-.8256.83637-1.1208 1.40885-.2985.579-.4498 1.29097-.4498 2.11604 0 .825.1513 1.5384.4493 2.1201.2956.5766.6732 1.0514 1.1225 1.4108.445.3559.9353.618 1.4574.7789.5132.1584 1.001.2385 1.4498.2385h5.931c.193 0 .368.0316.521.0938.15.0608.272.1437.374.2534.105.1128.184.2438.242.4001.058.1599.088.3403.088.5369 0 .4023-.104.7082-.318.9352-.209.2212-.505.3288-.906.3288h-10.2917v3.2644h10.2917c.3 0 .623-.0358.958-.1065.337-.0706.673-.182.999-.3311.326-.1487.645-.3424.949-.5754.312-.2392.588-.5327.819-.8727.229-.337.416-.7293.554-1.1655.139-.4382.209-.9351.209-1.4772 0-.5422-.068-1.0357-.204-1.4708z"/><path d="m62.6301 24.7302h-2.5788v12.9244c0 .1852.0329.3571.099.5158.0662.1588.1571.2961.2728.4116.1157.1158.2531.2068.4116.2727.1588.0664.3307.0993.5159.0993h11.7637v-2.5791h-10.4844v-11.6447z"/><path d="m88.222 26.213c-.5292-.5257-1.1555-.9374-1.8796-1.2349s-1.5127-.4464-2.3659-.4464h-3.4914c-.853 0-1.6433.1489-2.3705.4464-.7276.2975-1.3557.7092-1.8847 1.2349-.5291.5256-.944 1.1539-1.2449 1.8846-.3009.7308-.4513 1.5259-.4513 2.3855v2.7177c0 .8665.1504 1.6631.4513 2.3905s.7158 1.3556 1.2449 1.8845c.529.5292 1.1571.9407 1.8847 1.235.7272.2942 1.5175.4414 2.3705.4414h3.4914c.8532 0 1.6418-.1472 2.3659-.4414.7241-.2943 1.3504-.7058 1.8796-1.235.5291-.5291.9424-1.1571 1.2398-1.8845.2975-.7274.4462-1.5242.4462-2.3905v-2.7177c0-.8596-.1487-1.6547-.4462-2.3855-.2974-.7307-.7109-1.359-1.2398-1.8846zm-.8926 6.9878c0 .5094-.0812.9705-.2432 1.3836-.1619.4133-.3917.7673-.6891 1.0614-.2977.2942-.6532.5224-1.0664.6844-.4134.1619-.8713.2429-1.3739.2429h-3.4717c-.5026 0-.9604-.081-1.3737-.2429-.4133-.162-.7687-.3902-1.0664-.6844-.2976-.2942-.5274-.6481-.6893-1.0614-.1621-.4131-.243-.8744-.243-1.3836v-2.7177c0-.5092.0809-.9703.243-1.3836.1619-.4132.3917-.7672.6893-1.0614.2975-.2942.6531-.5223 1.0664-.6844.4131-.1619.8711-.2429 1.3737-.2429h3.4914c.4961 0 .9507.081 1.364.2429.4131.1621.767.3902 1.0612.6844.2942.2944.5224.6482.6844 1.0614.1619.4133.2431.8745.2431 1.3836v2.7177z"/><path d="m106.139 30.9296c-.116-.1189-.253-.2131-.411-.2825-.159-.0694-.331-.1042-.516-.1042h-8.1437v2.5989h6.8637v3.2334h-8.0241c-.3309 0-.587-.0907-.7687-.2728-.1819-.1818-.2728-.438-.2728-.7687v-6.963c0-.3504.0893-.615.2677-.7936.1784-.1785.4366-.2676.7738-.2676h10.4841v-2.579h-10.4841c-.4431 0-.8398.0562-1.1902.1686-.3506.1124-.6597.2627-.9274.4513-.2678.1885-.4976.4051-.6893.6496-.1919.2449-.3472.501-.4662.7687-.119.2678-.2069.5391-.2629.8134-.0562.2745-.0843.5307-.0843.7687v6.9827c0 .4432.0562.8417.1686 1.1954.1124.3538.2629.6647.4513.9323.1885.2677.4049.4961.6498.6844.2445.1885.5009.3422.7685.4611.2678.1191.5391.2068.8134.2629.2744.0562.5307.0843.7687.0843h9.3041c.185 0 .357-.0329.516-.0993.158-.0659.296-.1569.411-.2727.116-.1157.207-.253.273-.4116.066-.1587.099-.3306.099-.5158v-5.8126c0-.1784-.033-.3454-.099-.5009-.066-.1552-.157-.2926-.273-.4115z"/><path d="m111.899 24.7302h-2.579v14.2238h2.579z"/><path d="m127.906 32.3281c-.215-.3106-.461-.5767-.739-.7985-.278-.2214-.57-.4049-.878-.5504-.307-.1454-.616-.253-.927-.3224s-.605-.1075-.883-.1142h-5.951c-.49 0-.871-.1437-1.146-.4314-.274-.2877-.411-.6794-.411-1.1753 0-.4892.137-.8828.411-1.1805.275-.2974.656-.4462 1.146-.4462h8.778v-2.579h-8.778c-.417 0-.866.0746-1.349.2233s-.931.3902-1.344.7241c-.413.334-.757.7672-1.032 1.2994-.274.5322-.411 1.1852-.411 1.9591 0 .7738.137 1.4282.411 1.9638.275.5357.618.9688 1.032 1.2994.413.3309.861.5704 1.344.7191.483.1488.932.2233 1.349.2233h5.931c.239 0 .455.0396.65.1189.195.0794.36.1918.496.3372.136.1457.24.3176.313.516.072.1982.109.4165.109.6546 0 .4893-.138.8795-.412 1.1703-.275.2911-.66.4364-1.155.4364h-9.949v2.579h9.949c.277 0 .573-.0329.887-.0992.314-.066.624-.1684.928-.3074s.598-.3175.882-.5356c.285-.2182.533-.4826.744-.7936.212-.3106.382-.6694.511-1.0762.129-.4066.194-.8645.194-1.3737 0-.5093-.063-.9654-.189-1.3688s-.296-.7605-.511-1.0713z"/><path d="m129.506 27.3092h5.694v11.6448h2.579v-11.6448h5.683v-2.579h-13.956z"/><path d="m18.722 33.5415 8.7184-8.9253-1.1882-1.3045 10.2796-10.3089-4.6442-4.64416-3.9277 3.92756-1.3691-1.3306-8.7184 8.9254 1.1883 1.3045-10.68716 10.7176 4.64366 4.6436 4.3357-4.3357z"/><path d="m14.1027 16.1113 8.7184-8.92537 1.3691 1.33055 3.9277-3.92772-3.9049-3.904938c-.9118-.911763-2.3902-.911763-3.3021 0l-20.227078 20.227178c-.911763.9118-.911763 2.3902 0 3.3022l3.920018 3.92 10.68716-10.7176z"/><path d="m43.9988 20.4694-3.7825-3.7826-10.2798 10.3088 1.1883 1.3045-8.7183 8.9252-1.3691-1.3305-4.3357 4.3357 3.768 3.768c.9117.912 2.3902.912 3.3021 0l20.227-20.227c.912-.9118.912-2.3902 0-3.3021z"/></g></svg>