<svg fill="none" height="306" viewBox="0 0 306 306" width="306" xmlns="http://www.w3.org/2000/svg"><circle cx="153" cy="153" fill="#283128" r="153"/><path d="m209.396 175.151h-7.396v-35.132h29.123l6.009 16.641h8.321l5.547 18.491h-33.745" stroke="#f4f1e6" stroke-linejoin="round" stroke-width="2.77358"/><path d="m56.3868 129.387h138.679v36.0566h-138.679z" stroke="#f4f1e6" stroke-linejoin="round" stroke-width="2.77358"/><path d="m152.075 133.547h38.8302v27.7358h-38.8302z" fill="#e1621b"/><g stroke="#f4f1e6" stroke-linejoin="round" stroke-width="2.77358"><circle cx="62.8586" cy="175.613" r="4.62264"/><circle cx="187.67" cy="175.613" r="4.62264"/><circle cx="79.4999" cy="175.613" r="4.62264"/><circle cx="212.632" cy="175.613" r="4.62264"/></g><path d="m90.9902 143.644h1.9551v7.674h4.6338v1.682h-6.5889zm15.7308 0v1.656h-2.799v7.7h-1.968v-7.7h-2.8121v-1.656zm3.099 0h1.955v7.674h4.634v1.682h-6.589z" fill="#f4f1e6"/></svg>