<svg fill="none" height="306" viewBox="0 0 306 306" width="306" xmlns="http://www.w3.org/2000/svg"><circle cx="153" cy="153" fill="#283128" r="153"/><path d="m212.396 179.151h-7.396v-35.132h29.123l6.009 16.641h8.321l5.547 18.491h-33.745" stroke="#f4f1e6" stroke-linejoin="round" stroke-width="2.77358"/><path d="m59.3868 133.387h138.679v36.0566h-138.679z" stroke="#f4f1e6" stroke-linejoin="round" stroke-width="2.77358"/><path d="m64 138h130v27h-130z" fill="#e1621b"/><g stroke="#f4f1e6" stroke-linejoin="round" stroke-width="2.77358"><circle cx="65.8586" cy="179.613" r="4.62264"/><circle cx="190.67" cy="179.613" r="4.62264"/><circle cx="82.5002" cy="179.613" r="4.62264"/><circle cx="215.632" cy="179.613" r="4.62264"/></g><path d="m86.7886 146.644v1.656h-2.7993v7.7h-1.9678v-7.7h-2.812v-1.656zm7.0725 5.687h-2.0185v3.669h-1.9107v-9.356h4.5894c.6559.012 1.1595.093 1.5107.241.3555.148.656.366.9014.654.2031.237.3639.499.4824.787.1185.287.1778.615.1778.984 0 .444-.1122.882-.3365 1.314-.2243.427-.5945.73-1.1108.907.4316.174.7363.421.9141.743.1819.317.2729.804.2729 1.46v.628c0 .428.0169.718.0508.87.0508.241.1693.419.3555.533v.235h-2.1519c-.0592-.207-.1016-.375-.127-.501-.0507-.263-.0782-.532-.0825-.807l-.0127-.869c-.0084-.597-.1185-.995-.3301-1.194-.2073-.198-.5987-.298-1.1743-.298zm1.187-1.701c.3894-.178.584-.529.584-1.054 0-.567-.1883-.948-.5649-1.142-.2116-.11-.529-.165-.9522-.165h-2.2724v2.513h2.2153c.4401 0 .7702-.051.9902-.152zm11.7189 1.765v-5.751h1.987v5.751c0 .994-.154 1.768-.463 2.323-.576 1.015-1.674 1.523-3.295 1.523s-2.721-.508-3.301-1.523c-.309-.555-.463-1.329-.463-2.323v-5.751h1.987v5.751c0 .643.076 1.112.228 1.409.237.524.754.787 1.549.787.792 0 1.306-.263 1.543-.787.152-.297.228-.766.228-1.409zm12.411 2.907c-.698.639-1.591.958-2.679.958-1.345 0-2.403-.431-3.173-1.295-.771-.867-1.156-2.056-1.156-3.567 0-1.634.438-2.892 1.314-3.777.762-.77 1.731-1.155 2.908-1.155 1.574 0 2.725.516 3.453 1.549.402.579.617 1.161.647 1.745h-1.955c-.127-.448-.29-.787-.489-1.015-.355-.407-.882-.61-1.58-.61-.711 0-1.272.288-1.682.864-.411.571-.616 1.381-.616 2.431 0 1.049.216 1.836.647 2.361.436.521.988.781 1.657.781.686 0 1.208-.225 1.568-.673.199-.241.364-.603.495-1.086h1.936c-.169 1.02-.601 1.85-1.295 2.489zm13.033.698h-2.514l-2.888-4.088-.933.959v3.129h-1.923v-9.356h1.923v3.853l3.612-3.853h2.526l-3.834 3.853zm3.055-9.356h1.955v7.674h4.633v1.682h-6.588zm14.036 9.616c-1.338 0-2.36-.364-3.066-1.092-.948-.892-1.422-2.179-1.422-3.859 0-1.714.474-3 1.422-3.859.706-.728 1.728-1.092 3.066-1.092 1.337 0 2.359.364 3.065 1.092.944.859 1.416 2.145 1.416 3.859 0 1.68-.472 2.967-1.416 3.859-.706.728-1.728 1.092-3.065 1.092zm1.847-2.513c.453-.572.679-1.384.679-2.438 0-1.049-.229-1.86-.686-2.431-.452-.576-1.066-.863-1.84-.863-.775 0-1.393.285-1.854.857-.461.571-.692 1.383-.692 2.437s.231 1.866.692 2.438c.461.571 1.079.857 1.854.857.774 0 1.39-.286 1.847-.857zm11.56.33h-3.447l-.647 1.923h-2.044l3.339-9.356h2.209l3.313 9.356h-2.12zm-.546-1.613-1.168-3.681-1.206 3.681zm10.443 3.536h-4.03v-9.356h4.03c.58.008 1.063.076 1.448.203.656.215 1.187.611 1.593 1.187.326.465.548.969.666 1.51.119.542.178 1.058.178 1.549 0 1.244-.25 2.298-.749 3.161-.677 1.164-1.722 1.746-3.136 1.746zm1.454-6.97c-.3-.508-.895-.761-1.784-.761h-1.802v6.106h1.802c.923 0 1.566-.455 1.93-1.365.199-.499.298-1.094.298-1.783 0-.953-.148-1.685-.444-2.197z" fill="#f4f1e6"/></svg>