<svg fill="none" height="96" viewBox="0 0 96 96" width="96" xmlns="http://www.w3.org/2000/svg" xmlns:xlink="http://www.w3.org/1999/xlink"><clipPath id="a"><path d="m0 0h96v96h-96z"/></clipPath><g clip-path="url(#a)"><path d="m48 96c26.5097 0 48-21.4903 48-48s-21.4903-48-48-48-48 21.4903-48 48 21.4903 48 48 48z" fill="#e1621b"/><path d="m48 81.9409c18.745 0 33.9409-15.1959 33.9409-33.9409 0-18.7451-15.1959-33.9409-33.9409-33.9409-18.7451 0-33.9409 15.1958-33.9409 33.9409 0 18.745 15.1958 33.9409 33.9409 33.9409z" fill="#f6f4f1"/><path d="m48 79.7047c17.51 0 31.7046-14.1947 31.7046-31.7047s-14.1946-31.7047-31.7046-31.7047-31.7047 14.1947-31.7047 31.7047 14.1947 31.7047 31.7047 31.7047z" fill="#1f231f"/><path d="m38.167 46.2671 7.7102 7.7107 11.9557-11.9556" stroke="#fff" stroke-miterlimit="10" stroke-width="4.478"/></g></svg>