<svg fill="none" height="88" viewBox="0 0 87 88" width="87" xmlns="http://www.w3.org/2000/svg" xmlns:xlink="http://www.w3.org/1999/xlink"><clipPath id="a"><path d="m0 .5h87v87h-87z"/></clipPath><g clip-path="url(#a)"><path d="m43.5 87.5c24.0244 0 43.5-19.4756 43.5-43.5s-19.4756-43.5-43.5-43.5-43.5 19.4756-43.5 43.5 19.4756 43.5 43.5 43.5z" fill="#e1621b"/><path d="m60.6402 23.7305h-39.7408v50.006h39.7408z" fill="#1f231f"/><path d="m64.8795 19.854h-39.7408v50.006h39.7408z" fill="#fff"/><path d="m54.6488 16.97h-19.2801v5.7683h19.2801z" fill="#1f231f"/><path d="m45.4086 20.577c1.8151 0 3.2866-1.4714 3.2866-3.2865 0-1.8152-1.4715-3.2866-3.2866-3.2866s-3.2865 1.4714-3.2865 3.2866c0 1.8151 1.4714 3.2865 3.2865 3.2865z" stroke="#112026" stroke-miterlimit="10" stroke-width="5.221"/><path d="m35.369 40.6778c2.3382 0 4.2336-1.8955 4.2336-4.2337s-1.8954-4.2337-4.2336-4.2337c-2.3383 0-4.2337 1.8955-4.2337 4.2337s1.8954 4.2337 4.2337 4.2337z" fill="#112026"/><path d="m35.369 57.3033c2.3382 0 4.2336-1.8955 4.2336-4.2337s-1.8954-4.2337-4.2336-4.2337c-2.3383 0-4.2337 1.8955-4.2337 4.2337s1.8954 4.2337 4.2337 4.2337z" fill="#112026"/><g stroke-miterlimit="10" stroke-width="2.611"><path d="m46.2969 34.209h13.1443" stroke="#112026"/><path d="m46.2969 38.4424h13.1443" stroke="#112026"/><path d="m46.2969 50.9526h13.1443" stroke="#112026"/><path d="m46.2969 55.186h13.1443" stroke="#112026"/><path d="m33.2339 34.3091 4.2695 4.2695" stroke="#fff"/><path d="m37.5034 34.3091-4.2695 4.2695" stroke="#fff"/><path d="m33.2339 52.6702 1.8364 1.836 2.3357-2.3353" stroke="#fff"/></g></g></svg>