<svg fill="none" height="87" viewBox="0 0 87 87" width="87" xmlns="http://www.w3.org/2000/svg" xmlns:xlink="http://www.w3.org/1999/xlink"><clipPath id="a"><path d="m0 0h87v87h-87z"/></clipPath><mask id="b" height="87" maskUnits="userSpaceOnUse" width="88" x="0" y="0"><path d="m43.6585 87c23.9372 0 43.3421-19.4756 43.3421-43.5s-19.4049-43.5-43.3421-43.5-43.342094 19.4756-43.342094 43.5 19.404894 43.5 43.342094 43.5z" fill="#fff"/></mask><g clip-path="url(#a)"><path d="m43.6585 87c23.9372 0 43.3421-19.4756 43.3421-43.5s-19.4049-43.5-43.3421-43.5-43.342094 19.4756-43.342094 43.5 19.404894 43.5 43.342094 43.5z" fill="#e1621b"/><path d="m39.1892 66.6223c1.8932 0 3.4279-2.6008 3.4279-5.8092 0-3.2083-1.5347-5.8092-3.4279-5.8092s-3.428 2.6009-3.428 5.8092c0 3.2084 1.5348 5.8092 3.428 5.8092z" fill="#1f231f"/><g mask="url(#b)"><g fill="#1f231f"><path d="m38.5051 51.1245c-2.8883 0-5.2302 3.8134-5.2302 8.5175 0 3.4133 1.2334 6.3563 3.0133 7.715-1.0403-1.5719-1.6916-3.8162-1.6916-6.309 0-4.7537 2.3662-8.6066 5.2852-8.6066.6769 0 1.324.2095 1.919.5875-.8993-1.1901-2.0458-1.9044-3.2952-1.9044z"/><path d="m26.1697 60.0384-30.56765-10.6842 2.66226 3.6458 27.65829 11.781h7.3117c-.514-1.3959-.8248-3.0123-.8659-4.7421h-6.1992z"/><path d="m79.1237 53.0987c-.0078-.1456-.0165-.2705-.0261-.3638h-6.4952c-.3689 0-.6682-.3004-.6682-.6706v-2.0156c0-.3716.2997-.6725.67-.6725h5c-.7767-.8975-1.784-1.8676-2.9899-1.8676h-3.0335v-6.987c0-1.6775-1.2366-3.0968-2.8929-3.3205l-5.1007-.6885-.9771-.2577-3.8298-8.196c-.4114-.8805-1.2801-1.4556-2.249-1.4882l-2.0975-.0707c-.519-1.6353-1.3812-3.9875-3.6265-4.1607-1.1488-.0887-4.0353-.5563-6.5804-.9922-3.0915-.5296-6.2311-.7133-9.3629-.5466l-7.4578.3969v1.626l6.6166-.5626 9.4531.5865-9.3946-.0978-6.6746 1.0133v35.446h5.0911c0-.029-.0014-.0579-.0014-.0868 0-4.9916 2.6792-9.0379 5.9845-9.0379s5.9845 4.0463 5.9845 9.0379c0 .6132-.0408 1.2122-.1181 1.7909l3.0668 3.8676 30.6423-1.152 1.8133-2.8961v-4.6058h-24.8317l22.077-.8157c1.1675-.0432 2.0718-1.0414 2.0087-2.2122zm-8.7282-10.2418v12.1545h-14.9136v-12.0902zm-13.2051-15.2371 3.9117 8.4297-7.6143-.2154-4.8146-.0482-2.7813-8.3025 11.2989.1364zm-14.385-.6251 3.2147 8.765-1.4728-.0147-3.2408-8.7669zm-6.6778 7.9892v-7.3723c0-.3804.3094-.6881.6888-.6835l3.4435.0385 3.216 8.7678-6.6737-.0666c-.3735-.0036-.6746-.3091-.6746-.6839zm.5812 4.7229h14.7639c.8385 0 1.5181.6821 1.5181 1.5236v2.8382c-6.3931-4.1721-16.282-4.3618-16.282-4.3618zm18.0948 12.6303c0 .4855-.3922.8792-.8759.8792h-6.5873c-.4837 0-.8759-.3937-.8759-.8792v-2.1047c0-.4855.3922-.8791.8759-.8791h6.5873c.4837 0 .8759.3936.8759.8791z"/></g><path d="m-7.96796 45.8122 34.13746 13.2853v-37.8841l-35.1695 10.974c.65126-.0685 1.30893-.1038 1.97301-.1038m30.76809 15.0331-1.3066-20.3679-17.48707 3.4028c-.27505.0537-.37254-.3505-.10343-.429l19.4559-5.6793v23.055c0 .3624-.5354.3803-.5588.0184z" fill="#fff"/></g><g fill="#1f231f"><path d="m68.5026 44.7925h-11.3776v1.7303h11.3776z"/><path d="m68.5026 47.561h-11.3776v1.7304h11.3776z"/><path d="m68.5026 50.3293h-11.3776v1.7304h11.3776z"/><path d="m77.1462 48.9175s1.66 1.2099 1.9511 3.818l-.7076.2025s-.5945-4.0201-3.1963-4.0201"/></g></g></svg>