<svg fill="none" height="96" viewBox="0 0 96 96" width="96" xmlns="http://www.w3.org/2000/svg" xmlns:xlink="http://www.w3.org/1999/xlink"><clipPath id="a"><path d="m0 0h96v96h-96z"/></clipPath><g clip-path="url(#a)"><path d="m48 96c26.5097 0 48-21.4903 48-48s-21.4903-48-48-48-48 21.4903-48 48 21.4903 48 48 48z" fill="#e1621b"/><path d="m66.9132 25.6336h-43.8519v55.1791h43.8519z" fill="#1f231f"/><path d="m71.591 21.3563h-43.8519v55.179h43.8519z" fill="#fff"/><path d="m60.3024 18.1737h-21.2747v6.3651h21.2747z" fill="#1f231f"/><path d="m50.106 22.1541c2.0028 0 3.6265-1.6237 3.6265-3.6266 0-2.0028-1.6237-3.6265-3.6265-3.6265-2.0029 0-3.6266 1.6237-3.6266 3.6265 0 2.0029 1.6237 3.6266 3.6266 3.6266z" stroke="#112026" stroke-miterlimit="10" stroke-width="5.221"/><path d="m39.0277 44.3339c2.5801 0 4.6717-2.0915 4.6717-4.6716s-2.0916-4.6717-4.6717-4.6717-4.6717 2.0916-4.6717 4.6717 2.0916 4.6716 4.6717 4.6716z" fill="#112026"/><path d="m39.0277 62.6794c2.5801 0 4.6717-2.0915 4.6717-4.6716s-2.0916-4.6717-4.6717-4.6717-4.6717 2.0916-4.6717 4.6717 2.0916 4.6716 4.6717 4.6716z" fill="#112026"/><g stroke-miterlimit="10" stroke-width="2.611"><path d="m51.0862 37.1959h14.5041" stroke="#112026"/><path d="m51.0862 41.8676h14.5041" stroke="#112026"/><path d="m51.0862 55.6718h14.5041" stroke="#112026"/><path d="m51.0862 60.3434h14.5041" stroke="#112026"/><path d="m36.6718 37.3064 4.7112 4.7112" stroke="#fff"/><path d="m41.383 37.3064-4.7112 4.7112" stroke="#fff"/><path d="m36.6718 57.5668 2.0264 2.0259 2.5774-2.5768" stroke="#fff"/></g></g></svg>