<svg fill="none" height="88" viewBox="0 0 87 88" width="87" xmlns="http://www.w3.org/2000/svg" xmlns:xlink="http://www.w3.org/1999/xlink"><clipPath id="a"><path d="m0 .5h87v87h-87z"/></clipPath><g clip-path="url(#a)"><path d="m43.5 87.5c24.0244 0 43.5-19.4756 43.5-43.5s-19.4756-43.5-43.5-43.5-43.5 19.4756-43.5 43.5 19.4756 43.5 43.5 43.5z" fill="#e1621b"/><path d="m43.5002 74.7589c16.9877 0 30.7589-13.7713 30.7589-30.759s-13.7712-30.7589-30.7589-30.7589-30.759 13.7712-30.759 30.7589 13.7713 30.759 30.759 30.759z" fill="#f6f4f1"/><path d="m43.4999 72.7323c15.8685 0 28.7324-12.8639 28.7324-28.7324 0-15.8684-12.8639-28.7323-28.7324-28.7323-15.8684 0-28.7323 12.8639-28.7323 28.7323 0 15.8685 12.8639 28.7324 28.7323 28.7324z" fill="#1f231f"/><path d="m34.5889 42.4295 6.9874 6.9878 10.8348-10.8348" stroke="#fff" stroke-miterlimit="10" stroke-width="4.478"/></g></svg>